<svg xmlns="http://www.w3.org/2000/svg" xmlns:xlink="http://www.w3.org/1999/xlink" width="981" zoomAndPan="magnify" viewBox="0 0 735.75 386.250002" height="515" preserveAspectRatio="xMidYMid meet" version="1.0"><defs><clipPath id="71bcdb8b02"><path d="M 168.503906 49.886719 L 580.203125 49.886719 L 580.203125 153 L 168.503906 153 Z M 168.503906 49.886719 " clip-rule="nonzero"/></clipPath><clipPath id="897f8844af"><path d="M 168.503906 152 L 580.203125 152 L 580.203125 245 L 168.503906 245 Z M 168.503906 152 " clip-rule="nonzero"/></clipPath><clipPath id="053cba83e0"><path d="M 168.503906 244 L 580.203125 244 L 580.203125 347.0625 L 168.503906 347.0625 Z M 168.503906 244 " clip-rule="nonzero"/></clipPath></defs><g clip-path="url(#71bcdb8b02)"><path fill="#cc212d" d="M 534.371094 49.886719 L 214.335938 49.886719 C 189.089844 49.886719 168.617188 70.359375 168.617188 95.605469 L 168.617188 152.757812 L 580.089844 152.757812 L 580.089844 95.605469 C 580.089844 70.359375 559.617188 49.886719 534.371094 49.886719 Z M 534.371094 49.886719 " fill-opacity="1" fill-rule="nonzero"/></g><g clip-path="url(#897f8844af)"><path fill="#fbd116" d="M 344.898438 244.195312 L 404.164062 244.195312 L 374.535156 222.660156 Z M 385.898438 187.71875 L 422.644531 187.71875 L 392.914062 209.308594 L 404.242188 244.195312 L 580.089844 244.195312 L 580.089844 152.757812 L 374.535156 152.757812 Z M 356.15625 209.308594 L 326.429688 187.71875 L 363.175781 187.71875 L 374.535156 152.757812 L 168.617188 152.757812 L 168.617188 244.195312 L 344.820312 244.195312 Z M 356.15625 209.308594 " fill-opacity="1" fill-rule="nonzero"/></g><g clip-path="url(#053cba83e0)"><path fill="#288541" d="M 404.265625 244.261719 L 404.164062 244.195312 L 344.886719 244.195312 L 344.785156 244.261719 L 344.820312 244.195312 L 168.617188 244.195312 L 168.617188 301.34375 C 168.617188 326.589844 189.089844 347.0625 214.335938 347.0625 L 534.371094 347.0625 C 559.617188 347.0625 580.089844 326.589844 580.089844 301.34375 L 580.089844 244.195312 L 404.242188 244.195312 Z M 404.265625 244.261719 " fill-opacity="1" fill-rule="nonzero"/></g><path fill="#000000" d="M 326.429688 187.71875 L 356.15625 209.308594 L 344.820312 244.195312 L 344.796875 244.261719 L 344.898438 244.195312 L 374.535156 222.660156 L 404.164062 244.195312 L 404.265625 244.261719 L 404.242188 244.195312 L 392.914062 209.308594 L 422.644531 187.71875 L 385.898438 187.71875 L 374.535156 152.757812 L 363.175781 187.71875 Z M 326.429688 187.71875 " fill-opacity="1" fill-rule="nonzero"/> </svg>