<svg xmlns="http://www.w3.org/2000/svg" xmlns:xlink="http://www.w3.org/1999/xlink" width="981" zoomAndPan="magnify" viewBox="0 0 735.75 386.250002" height="515" preserveAspectRatio="xMidYMid meet" version="1.0"><defs><clipPath id="7114b05a84"><path d="M 279 281 L 336 281 L 336 307.410156 L 279 307.410156 Z M 279 281 " clip-rule="nonzero"/></clipPath><clipPath id="eb5a9a58ed"><path d="M 410 281 L 467 281 L 467 307.410156 L 410 307.410156 Z M 410 281 " clip-rule="nonzero"/></clipPath><clipPath id="e653d52b0a"><path d="M 256.242188 262 L 489.789062 262 L 489.789062 288 L 256.242188 288 Z M 256.242188 262 " clip-rule="nonzero"/></clipPath><clipPath id="f3be995abe"><path d="M 348 67.878906 L 398 67.878906 L 398 118 L 348 118 Z M 348 67.878906 " clip-rule="nonzero"/></clipPath></defs><path fill="#e93459" d="M 466.878906 268.234375 L 432.4375 268.234375 C 430.890625 268.234375 429.628906 266.976562 429.628906 265.425781 L 429.628906 211.910156 C 429.628906 210.855469 430.226562 209.890625 431.164062 209.414062 C 432.109375 208.929688 433.238281 209.023438 434.089844 209.648438 C 438.632812 212.964844 444.015625 214.71875 449.65625 214.71875 C 455.296875 214.71875 460.683594 212.964844 465.226562 209.648438 C 466.078125 209.023438 467.207031 208.929688 468.152344 209.410156 C 469.089844 209.886719 469.6875 210.855469 469.6875 211.910156 L 469.6875 265.425781 C 469.6875 266.976562 468.433594 268.234375 466.878906 268.234375 Z M 466.878906 268.234375 " fill-opacity="1" fill-rule="evenodd"/><path fill="#ff7983" d="M 313.644531 268.234375 L 279.199219 268.234375 C 277.648438 268.234375 276.390625 266.980469 276.390625 265.429688 L 276.390625 200.742188 C 276.390625 199.683594 276.984375 198.714844 277.925781 198.238281 C 278.871094 197.761719 280 197.851562 280.851562 198.472656 C 285.394531 201.796875 290.78125 203.550781 296.417969 203.550781 C 302.0625 203.550781 307.441406 201.796875 311.988281 198.476562 C 312.839844 197.855469 313.972656 197.761719 314.910156 198.238281 C 315.851562 198.714844 316.445312 199.683594 316.445312 200.742188 L 316.445312 265.429688 C 316.445312 266.976562 315.191406 268.234375 313.644531 268.234375 Z M 313.644531 268.234375 " fill-opacity="1" fill-rule="evenodd"/><path fill="#46b2ff" d="M 390.257812 268.234375 L 355.820312 268.234375 C 354.269531 268.234375 353.011719 266.976562 353.011719 265.425781 L 353.011719 173.882812 C 353.011719 172.824219 353.605469 171.859375 354.546875 171.382812 C 355.492188 170.902344 356.617188 170.996094 357.476562 171.617188 C 362.015625 174.933594 367.394531 176.691406 373.039062 176.691406 C 378.683594 176.691406 384.0625 174.933594 388.601562 171.617188 C 389.457031 170.996094 390.585938 170.902344 391.53125 171.378906 C 392.472656 171.859375 393.066406 172.824219 393.066406 173.882812 L 393.066406 265.425781 C 393.066406 266.976562 391.808594 268.234375 390.257812 268.234375 Z M 390.257812 268.234375 " fill-opacity="1" fill-rule="evenodd"/><g clip-path="url(#7114b05a84)"><path fill="#fec93e" d="M 332.847656 307.34375 L 281.988281 307.34375 C 280.4375 307.34375 279.179688 306.089844 279.179688 304.542969 L 279.179688 284.429688 C 279.179688 282.878906 280.4375 281.625 281.988281 281.625 L 332.847656 281.625 C 334.394531 281.625 335.652344 282.878906 335.652344 284.429688 L 335.652344 304.542969 C 335.652344 306.089844 334.394531 307.34375 332.847656 307.34375 Z M 332.847656 307.34375 " fill-opacity="1" fill-rule="evenodd"/></g><g clip-path="url(#eb5a9a58ed)"><path fill="#fec93e" d="M 464.089844 307.34375 L 413.234375 307.34375 C 411.683594 307.34375 410.425781 306.089844 410.425781 304.542969 L 410.425781 284.429688 C 410.425781 282.878906 411.683594 281.625 413.234375 281.625 L 464.089844 281.625 C 465.644531 281.625 466.898438 282.878906 466.898438 284.429688 L 466.898438 304.542969 C 466.898438 306.089844 465.644531 307.34375 464.089844 307.34375 Z M 464.089844 307.34375 " fill-opacity="1" fill-rule="evenodd"/></g><path fill="#e93459" d="M 296.417969 209.160156 C 278.757812 209.160156 264.386719 194.789062 264.386719 177.128906 C 264.386719 159.464844 278.757812 145.097656 296.417969 145.097656 C 314.082031 145.097656 328.449219 159.464844 328.449219 177.128906 C 328.449219 194.789062 314.082031 209.160156 296.417969 209.160156 Z M 296.417969 209.160156 " fill-opacity="1" fill-rule="evenodd"/><path fill="#3f96d5" d="M 373.039062 182.300781 C 355.378906 182.300781 341.007812 167.933594 341.007812 150.269531 C 341.007812 132.609375 355.378906 118.238281 373.039062 118.238281 C 390.703125 118.238281 405.070312 132.609375 405.070312 150.269531 C 405.070312 167.933594 390.699219 182.300781 373.039062 182.300781 Z M 373.039062 182.300781 " fill-opacity="1" fill-rule="evenodd"/><path fill="#ed5a79" d="M 449.65625 220.332031 C 432 220.332031 417.628906 205.964844 417.628906 188.300781 C 417.628906 170.640625 431.992188 156.269531 449.65625 156.269531 C 467.316406 156.269531 481.6875 170.640625 481.6875 188.300781 C 481.6875 205.964844 467.316406 220.332031 449.65625 220.332031 Z M 449.65625 220.332031 " fill-opacity="1" fill-rule="evenodd"/><g clip-path="url(#e653d52b0a)"><path fill="#f7a738" d="M 487.003906 287.238281 L 259.074219 287.238281 C 257.523438 287.238281 256.265625 285.976562 256.265625 284.429688 L 256.265625 265.425781 C 256.265625 263.878906 257.523438 262.621094 259.074219 262.621094 L 487.003906 262.621094 C 488.554688 262.621094 489.8125 263.878906 489.8125 265.425781 L 489.8125 284.429688 C 489.8125 285.976562 488.554688 287.238281 487.003906 287.238281 Z M 487.003906 287.238281 " fill-opacity="1" fill-rule="evenodd"/></g><path fill="#ffe27a" d="M 373.09375 169.125 C 371.546875 169.125 370.285156 167.863281 370.285156 166.316406 L 370.285156 134.222656 C 370.285156 132.675781 371.546875 131.417969 373.09375 131.417969 C 374.644531 131.417969 375.898438 132.675781 375.898438 134.222656 L 375.898438 166.316406 C 375.898438 167.863281 374.644531 169.125 373.09375 169.125 Z M 373.09375 169.125 " fill-opacity="1" fill-rule="evenodd"/><path fill="#ffe27a" d="M 384.328125 169.125 L 361.855469 169.125 C 360.304688 169.125 359.050781 167.863281 359.050781 166.316406 C 359.050781 164.765625 360.304688 163.511719 361.855469 163.511719 L 384.328125 163.511719 C 385.878906 163.511719 387.136719 164.765625 387.136719 166.316406 C 387.136719 167.863281 385.878906 169.125 384.328125 169.125 Z M 384.328125 169.125 " fill-opacity="1" fill-rule="evenodd"/><path fill="#ffe27a" d="M 361.746094 148.375 C 361.027344 148.375 360.3125 148.101562 359.761719 147.554688 C 358.667969 146.460938 358.667969 144.683594 359.761719 143.585938 L 371.109375 132.238281 C 372.207031 131.144531 373.980469 131.144531 375.078125 132.238281 C 376.171875 133.335938 376.171875 135.113281 375.078125 136.207031 L 363.730469 147.554688 C 363.183594 148.101562 362.464844 148.375 361.746094 148.375 Z M 361.746094 148.375 " fill-opacity="1" fill-rule="evenodd"/><path fill="#ffe27a" d="M 307.097656 196.019531 L 286.832031 196.019531 C 285.746094 196.019531 284.757812 195.394531 284.292969 194.410156 C 283.832031 193.429688 283.980469 192.261719 284.671875 191.425781 C 285.207031 190.78125 286.191406 189.664062 287.546875 188.121094 C 292.269531 182.734375 301.066406 172.710938 303.652344 168.140625 C 304.058594 167.417969 304.007812 166.933594 303.464844 166.292969 C 301.761719 164.289062 296.855469 163.039062 293.066406 164.433594 C 290.070312 165.535156 288.542969 168.019531 288.542969 171.820312 C 288.542969 173.367188 287.289062 174.625 285.742188 174.625 C 284.191406 174.625 282.933594 173.367188 282.933594 171.820312 C 282.933594 165.691406 285.921875 161.078125 291.132812 159.164062 C 296.863281 157.058594 304.3125 158.628906 307.742188 162.660156 C 309.820312 165.109375 310.109375 168.113281 308.539062 170.902344 C 306.046875 175.300781 299.371094 183.128906 293 190.410156 L 307.101562 190.410156 C 308.652344 190.410156 309.90625 191.667969 309.90625 193.21875 C 309.90625 194.765625 308.652344 196.019531 307.097656 196.019531 Z M 307.097656 196.019531 " fill-opacity="1" fill-rule="evenodd"/><path fill="#ffe27a" d="M 449.460938 207.195312 C 444.136719 207.195312 439.523438 203.769531 437.976562 198.675781 C 437.527344 197.191406 438.367188 195.621094 439.851562 195.171875 C 441.332031 194.730469 442.902344 195.566406 443.351562 197.050781 C 444.167969 199.757812 446.625 201.585938 449.460938 201.585938 C 452.980469 201.585938 455.84375 198.71875 455.84375 195.195312 C 455.84375 193.695312 455.316406 192.25 454.359375 191.105469 L 445.296875 191.105469 C 443.75 191.105469 442.492188 189.847656 442.492188 188.300781 C 442.492188 186.75 443.75 185.496094 445.296875 185.496094 L 454.359375 185.496094 C 455.316406 184.355469 455.84375 182.910156 455.84375 181.402344 C 455.84375 177.882812 452.980469 175.019531 449.460938 175.019531 C 446.625 175.019531 444.167969 176.839844 443.351562 179.554688 C 442.902344 181.035156 441.339844 181.875 439.851562 181.425781 C 438.367188 180.976562 437.527344 179.414062 437.976562 177.929688 C 439.523438 172.835938 444.136719 169.410156 449.460938 169.410156 C 456.078125 169.410156 461.460938 174.789062 461.460938 181.402344 C 461.460938 183.894531 460.683594 186.300781 459.273438 188.300781 C 460.683594 190.300781 461.460938 192.707031 461.460938 195.195312 C 461.460938 201.8125 456.078125 207.195312 449.460938 207.195312 Z M 449.460938 207.195312 " fill-opacity="1" fill-rule="evenodd"/><g clip-path="url(#f3be995abe)"><path fill="#f7a828" d="M 359.527344 117.53125 C 358.972656 117.53125 358.414062 117.367188 357.933594 117.03125 C 356.925781 116.335938 356.492188 115.066406 356.851562 113.902344 L 361.472656 98.957031 L 349.476562 89.773438 C 348.523438 89.042969 348.140625 87.78125 348.527344 86.644531 C 348.917969 85.507812 349.984375 84.738281 351.1875 84.738281 C 351.1875 84.738281 351.1875 84.738281 351.191406 84.738281 L 365.828125 84.773438 L 370.355469 69.929688 C 370.71875 68.75 371.804688 67.941406 373.039062 67.941406 C 374.273438 67.941406 375.363281 68.75 375.722656 69.929688 L 380.25 84.773438 L 394.886719 84.742188 C 394.890625 84.742188 394.890625 84.742188 394.894531 84.742188 C 396.09375 84.742188 397.164062 85.507812 397.550781 86.644531 C 397.9375 87.785156 397.554688 89.042969 396.597656 89.773438 L 384.605469 98.957031 L 389.222656 113.902344 C 389.589844 115.070312 389.148438 116.339844 388.148438 117.035156 C 387.140625 117.734375 385.800781 117.695312 384.832031 116.953125 L 373.039062 107.851562 L 361.246094 116.953125 C 360.742188 117.339844 360.136719 117.53125 359.527344 117.53125 Z M 359.527344 117.53125 " fill-opacity="1" fill-rule="evenodd"/></g></svg>