<svg xmlns="http://www.w3.org/2000/svg" xmlns:xlink="http://www.w3.org/1999/xlink" width="981" zoomAndPan="magnify" viewBox="0 0 735.75 386.250002" height="515" preserveAspectRatio="xMidYMid meet" version="1.0"><defs><clipPath id="1b559c3ba2"><path d="M 256.363281 56.6875 L 503 56.6875 L 503 347 L 256.363281 347 Z M 256.363281 56.6875 " clip-rule="nonzero"/></clipPath></defs><path fill="#ffde59" d="M 359.300781 149.859375 L 362.582031 158.363281 L 353.546875 159.761719 C 340.082031 161.929688 326.898438 154.308594 322.03125 141.558594 L 318.730469 133.074219 L 327.765625 131.621094 C 341.25 129.488281 354.414062 137.070312 359.300781 149.859375 " fill-opacity="1" fill-rule="nonzero"/><path fill="#ffde59" d="M 357.808594 102.898438 L 362.582031 114.910156 L 351.53125 114.910156 C 343.609375 114.910156 336.515625 110.082031 333.554688 102.785156 L 328.785156 90.769531 L 339.835938 90.769531 C 347.757812 90.769531 354.847656 95.597656 357.808594 102.898438 " fill-opacity="1" fill-rule="nonzero"/><path fill="#ffde59" d="M 406.429688 133.074219 L 403.128906 141.558594 C 398.265625 154.308594 385.082031 161.929688 371.617188 159.761719 L 362.582031 158.363281 L 365.863281 149.859375 C 370.746094 137.070312 383.910156 129.488281 397.398438 131.621094 L 406.429688 133.074219 " fill-opacity="1" fill-rule="nonzero"/><path fill="#ffde59" d="M 391.605469 102.785156 C 388.644531 110.082031 381.554688 114.910156 373.632812 114.910156 L 362.582031 114.910156 L 367.351562 102.898438 C 370.3125 95.597656 377.40625 90.769531 385.328125 90.769531 L 396.378906 90.769531 L 391.605469 102.785156 " fill-opacity="1" fill-rule="nonzero"/><g clip-path="url(#1b559c3ba2)"><path fill="#5798d8" d="M 352.832031 155.027344 C 341.628906 156.761719 330.578125 150.40625 326.523438 139.824219 L 325.410156 136.882812 L 328.5 136.394531 C 339.703125 134.621094 350.757812 141.03125 354.8125 151.613281 L 355.925781 154.554688 Z M 351.53125 110.082031 C 345.53125 110.082031 340.269531 106.519531 338.042969 100.957031 L 335.933594 95.597656 L 339.835938 95.597656 C 345.832031 95.597656 351.097656 99.164062 353.320312 104.726562 L 355.433594 110.082031 Z M 371.839844 104.726562 C 374.066406 99.164062 379.328125 95.597656 385.328125 95.597656 L 389.230469 95.597656 L 387.117188 100.957031 C 384.890625 106.519531 379.628906 110.082031 373.632812 110.082031 L 369.730469 110.082031 Z M 370.351562 151.613281 C 374.40625 141.03125 385.457031 134.621094 396.660156 136.394531 L 399.753906 136.882812 L 398.640625 139.824219 C 394.585938 150.40625 383.535156 156.816406 372.332031 155.027344 L 369.238281 154.554688 Z M 500.089844 200.667969 L 468.800781 161.496094 C 467.875 103.707031 420.574219 56.972656 362.582031 56.972656 C 334.199219 56.972656 307.546875 68.027344 287.460938 88.074219 C 267.414062 108.160156 256.363281 134.808594 256.363281 163.191406 L 266.019531 163.191406 C 266.019531 137.410156 276.070312 113.121094 294.308594 94.921875 C 312.507812 76.683594 336.800781 66.628906 362.582031 66.628906 C 415.839844 66.628906 459.144531 109.933594 459.144531 163.191406 C 459.144531 164.304688 459.539062 165.359375 460.199219 166.191406 L 492.542969 206.644531 L 473.628906 206.644531 C 470.96875 206.644531 468.800781 208.8125 468.800781 211.472656 L 468.800781 264.582031 C 468.800781 272.542969 462.273438 279.066406 454.316406 279.066406 L 425.347656 279.066406 C 422.6875 279.066406 420.519531 281.234375 420.519531 283.894531 L 420.519531 337.003906 L 304.644531 337.003906 L 304.644531 249.476562 C 304.644531 248.117188 304.058594 246.761719 303.042969 245.855469 C 285.726562 230.351562 273.65625 209.777344 268.679688 187.332031 L 352.925781 187.332031 C 360.882812 187.332031 367.410156 180.808594 367.410156 172.847656 L 367.410156 164.003906 L 370.84375 164.550781 C 372.578125 164.832031 374.3125 164.984375 376.046875 164.984375 C 389.816406 164.984375 402.601562 156.441406 407.675781 143.296875 L 410.917969 134.808594 C 411.445312 133.414062 411.351562 131.902344 410.617188 130.660156 C 409.902344 129.394531 408.597656 128.527344 407.183594 128.28125 L 398.167969 126.832031 C 386.476562 125 374.898438 129.546875 367.410156 138.089844 L 367.410156 119.738281 L 373.632812 119.738281 C 383.589844 119.738281 392.359375 113.796875 396.039062 104.574219 L 400.867188 92.5625 C 401.453125 91.054688 401.261719 89.375 400.394531 88.074219 C 399.472656 86.714844 397.980469 85.941406 396.378906 85.941406 L 385.328125 85.941406 C 375.367188 85.941406 366.597656 91.882812 362.921875 101.105469 L 362.582031 101.917969 L 362.242188 101.105469 C 358.5625 91.882812 349.792969 85.941406 339.835938 85.941406 L 328.785156 85.941406 C 327.179688 85.941406 325.691406 86.714844 324.765625 88.074219 C 323.898438 89.375 323.710938 91.054688 324.296875 92.5625 L 329.125 104.574219 C 332.800781 113.796875 341.570312 119.738281 351.53125 119.738281 L 357.753906 119.738281 L 357.753906 138.089844 C 350.265625 129.546875 338.6875 125 326.992188 126.832031 L 317.976562 128.28125 C 316.5625 128.527344 315.261719 129.394531 314.546875 130.660156 C 313.808594 131.902344 313.714844 133.414062 314.242188 134.808594 L 317.488281 143.296875 C 322.5625 156.441406 335.347656 164.984375 349.117188 164.984375 C 350.851562 164.984375 352.585938 164.832031 354.320312 164.550781 L 357.753906 164.003906 L 357.753906 172.847656 C 357.753906 175.507812 355.585938 177.675781 352.925781 177.675781 L 262.832031 177.675781 C 261.4375 177.675781 260.078125 178.300781 259.171875 179.375 C 258.25 180.488281 257.851562 181.882812 258.058594 183.277344 C 262.398438 209.34375 275.488281 233.484375 294.988281 251.589844 L 294.988281 341.832031 C 294.988281 344.492188 297.15625 346.660156 299.816406 346.660156 L 425.347656 346.660156 C 428.007812 346.660156 430.175781 344.492188 430.175781 341.832031 L 430.175781 288.722656 L 454.316406 288.722656 C 467.648438 288.722656 478.457031 277.917969 478.457031 264.582031 L 478.457031 216.300781 L 492.542969 216.300781 C 496.316406 216.300781 499.65625 214.226562 501.238281 210.851562 C 502.878906 207.457031 502.40625 203.550781 500.089844 200.667969 " fill-opacity="1" fill-rule="nonzero"/></g></svg>