<svg xmlns="http://www.w3.org/2000/svg" xmlns:xlink="http://www.w3.org/1999/xlink" width="981" zoomAndPan="magnify" viewBox="0 0 735.75 386.250002" height="515" preserveAspectRatio="xMidYMid meet" version="1.0"><defs><clipPath id="de1031e4cf"><path d="M 345 70.714844 L 493.371094 70.714844 L 493.371094 220 L 345 220 Z M 345 70.714844 " clip-rule="nonzero"/></clipPath><clipPath id="632addeb79"><path d="M 345 163 L 493.371094 163 L 493.371094 315 L 345 315 Z M 345 163 " clip-rule="nonzero"/></clipPath><clipPath id="e0fbc4e307"><path d="M 252.335938 163 L 400 163 L 400 313 L 252.335938 313 Z M 252.335938 163 " clip-rule="nonzero"/></clipPath></defs><path fill="#c3e678" d="M 372.515625 189.003906 C 372.515625 198.28125 378.136719 206.242188 386.167969 209.667969 L 386.167969 216.546875 L 359.277344 216.546875 C 353.269531 216.546875 348.351562 221.460938 348.351562 227.464844 L 348.351562 254.332031 L 354.140625 254.332031 C 357.570312 246.308594 365.539062 240.691406 374.820312 240.691406 C 387.234375 240.691406 397.296875 250.75 397.296875 263.148438 C 397.296875 275.554688 387.230469 285.605469 374.820312 285.605469 C 365.539062 285.605469 357.570312 279.988281 354.140625 271.964844 L 348.351562 271.964844 L 348.351562 298.832031 C 348.351562 317.742188 414.550781 309.75 430.703125 309.75 C 436.707031 309.75 441.625 304.835938 441.625 298.832031 L 441.625 271.964844 L 447.414062 271.964844 C 450.84375 279.988281 458.8125 285.605469 468.09375 285.605469 C 480.507812 285.605469 490.570312 275.550781 490.570312 263.148438 C 490.570312 250.742188 480.503906 240.691406 468.09375 240.691406 C 458.8125 240.691406 450.84375 246.308594 447.414062 254.332031 L 441.625 254.332031 L 441.625 227.464844 C 441.625 221.460938 436.707031 216.546875 430.703125 216.546875 L 403.8125 216.546875 L 403.8125 209.667969 C 411.839844 206.242188 417.464844 198.28125 417.464844 189.003906 C 417.464844 176.597656 407.398438 166.546875 394.988281 166.546875 C 382.578125 166.546875 372.515625 176.605469 372.515625 189.003906 Z M 372.515625 189.003906 " fill-opacity="1" fill-rule="evenodd"/><path fill="#00d2ff" d="M 348.359375 227.464844 C 348.359375 221.460938 343.441406 216.546875 337.433594 216.546875 L 310.542969 216.546875 L 310.542969 209.667969 C 318.570312 206.242188 324.195312 198.28125 324.195312 189.003906 C 324.195312 176.597656 314.128906 166.546875 301.71875 166.546875 C 289.3125 166.546875 279.246094 176.605469 279.246094 189.003906 C 279.246094 198.28125 284.871094 206.242188 292.898438 209.667969 L 292.898438 216.546875 L 266.007812 216.546875 C 260 216.546875 255.082031 221.460938 255.082031 227.464844 L 255.082031 298.832031 C 255.082031 304.835938 260 309.75 266.007812 309.75 L 337.433594 309.75 C 343.441406 309.75 348.359375 304.835938 348.359375 298.832031 L 348.359375 271.964844 L 354.144531 271.964844 C 357.574219 279.988281 365.542969 285.605469 374.824219 285.605469 C 387.242188 285.605469 397.300781 275.550781 397.300781 263.148438 C 397.300781 250.742188 387.234375 240.691406 374.824219 240.691406 C 365.542969 240.691406 357.574219 246.308594 354.144531 254.332031 L 348.359375 254.332031 Z M 348.359375 227.464844 " fill-opacity="1" fill-rule="evenodd"/><path fill="#ff6464" d="M 348.359375 205.632812 C 348.359375 211.636719 353.277344 216.550781 359.285156 216.550781 L 386.171875 216.550781 L 386.171875 209.671875 C 378.144531 206.246094 372.519531 198.285156 372.519531 189.011719 C 372.519531 176.605469 382.585938 166.550781 394.996094 166.550781 C 407.410156 166.550781 417.46875 176.609375 417.46875 189.011719 C 417.46875 198.285156 411.847656 206.246094 403.816406 209.671875 L 403.816406 216.550781 L 430.707031 216.550781 C 436.714844 216.550781 441.632812 211.636719 441.632812 205.632812 L 441.632812 178.765625 L 447.421875 178.765625 C 450.847656 186.789062 458.816406 192.40625 468.101562 192.40625 C 480.515625 192.40625 490.574219 182.351562 490.574219 169.949219 C 490.574219 157.542969 480.507812 147.492188 468.101562 147.492188 C 458.816406 147.492188 450.847656 153.113281 447.421875 161.132812 L 441.632812 161.132812 L 441.632812 134.265625 C 441.632812 128.261719 436.714844 123.347656 430.707031 123.347656 L 403.816406 123.347656 L 403.816406 116.46875 C 411.847656 113.042969 417.46875 105.082031 417.46875 95.804688 C 417.46875 83.398438 407.40625 73.347656 394.996094 73.347656 C 382.578125 73.347656 372.519531 83.40625 372.519531 95.804688 C 372.519531 105.082031 378.144531 113.042969 386.171875 116.46875 L 386.171875 123.347656 L 359.285156 123.347656 C 353.277344 123.347656 348.359375 128.261719 348.359375 134.265625 Z M 348.359375 205.632812 " fill-opacity="1" fill-rule="evenodd"/><g clip-path="url(#de1031e4cf)"><path fill="#000000" d="M 430.707031 219.171875 C 429.253906 219.171875 428.078125 217.996094 428.078125 216.546875 C 428.078125 215.097656 429.253906 213.917969 430.707031 213.917969 C 435.28125 213.917969 439.003906 210.203125 439.003906 205.628906 L 439.003906 178.761719 C 439.003906 177.308594 440.179688 176.132812 441.632812 176.132812 L 447.421875 176.132812 C 448.472656 176.132812 449.425781 176.761719 449.835938 177.726562 C 452.964844 185.046875 460.132812 189.777344 468.101562 189.777344 C 479.046875 189.777344 487.953125 180.878906 487.953125 169.945312 C 487.953125 159.003906 479.046875 150.113281 468.101562 150.113281 C 460.136719 150.113281 452.96875 154.839844 449.839844 162.164062 C 449.429688 163.132812 448.476562 163.753906 447.425781 163.753906 L 441.636719 163.753906 C 440.1875 163.753906 439.007812 162.578125 439.007812 161.128906 L 439.007812 134.257812 C 439.007812 129.691406 435.289062 125.96875 430.710938 125.96875 L 403.824219 125.96875 C 402.371094 125.96875 401.195312 124.792969 401.195312 123.34375 L 401.195312 116.464844 C 401.195312 115.414062 401.824219 114.460938 402.789062 114.050781 C 410.117188 110.925781 414.847656 103.761719 414.847656 95.800781 C 414.847656 84.867188 405.941406 75.96875 395 75.96875 C 384.058594 75.96875 375.152344 84.867188 375.152344 95.800781 C 375.152344 103.757812 379.886719 110.917969 387.214844 114.050781 C 388.183594 114.464844 388.808594 115.414062 388.808594 116.464844 L 388.808594 123.34375 C 388.808594 124.792969 387.628906 125.96875 386.179688 125.96875 L 359.289062 125.96875 C 354.714844 125.96875 350.992188 129.683594 350.992188 134.257812 L 350.992188 205.628906 C 350.992188 210.199219 354.710938 213.917969 359.289062 213.917969 C 360.738281 213.917969 361.917969 215.097656 361.917969 216.546875 C 361.917969 217.996094 360.738281 219.171875 359.289062 219.171875 C 351.8125 219.171875 345.734375 213.097656 345.734375 205.628906 L 345.734375 134.265625 C 345.734375 126.796875 351.8125 120.722656 359.289062 120.722656 L 383.550781 120.722656 L 383.550781 118.136719 C 375.199219 113.863281 369.898438 105.285156 369.898438 95.804688 C 369.898438 81.972656 381.160156 70.71875 395 70.71875 C 408.839844 70.71875 420.105469 81.976562 420.105469 95.804688 C 420.105469 105.277344 414.796875 113.863281 406.453125 118.136719 L 406.453125 120.722656 L 430.710938 120.722656 C 438.1875 120.722656 444.265625 126.796875 444.265625 134.265625 L 444.265625 158.507812 L 445.757812 158.507812 C 450.03125 150.160156 458.621094 144.863281 468.105469 144.863281 C 481.949219 144.863281 493.210938 156.121094 493.210938 169.949219 C 493.210938 183.785156 481.945312 195.035156 468.105469 195.035156 C 458.625 195.035156 450.03125 189.730469 445.757812 181.390625 L 444.265625 181.390625 L 444.265625 205.632812 C 444.261719 213.097656 438.175781 219.171875 430.707031 219.171875 Z M 430.707031 219.171875 " fill-opacity="1" fill-rule="nonzero"/></g><g clip-path="url(#632addeb79)"><path fill="#000000" d="M 387.835938 314.035156 C 370.179688 314.035156 355.429688 312.324219 349.074219 306.332031 C 346.851562 304.234375 345.722656 301.710938 345.722656 298.839844 C 345.722656 297.390625 346.902344 296.210938 348.351562 296.210938 C 349.804688 296.210938 350.980469 297.390625 350.980469 298.839844 C 350.980469 300.25 351.523438 301.417969 352.683594 302.511719 C 361.601562 310.925781 397.972656 308.835938 417.519531 307.714844 C 423.203125 307.386719 427.695312 307.128906 430.703125 307.128906 C 435.273438 307.128906 439 303.414062 439 298.839844 L 439 271.96875 C 439 270.519531 440.175781 269.34375 441.625 269.34375 L 447.414062 269.34375 C 448.46875 269.34375 449.417969 269.972656 449.832031 270.9375 C 452.957031 278.257812 460.125 282.984375 468.09375 282.984375 C 479.042969 282.984375 487.945312 274.089844 487.945312 263.152344 C 487.945312 252.21875 479.042969 243.324219 468.09375 243.324219 C 460.132812 243.324219 452.964844 248.050781 449.835938 255.371094 C 449.425781 256.339844 448.472656 256.964844 447.421875 256.964844 L 441.632812 256.964844 C 440.179688 256.964844 439.003906 255.789062 439.003906 254.339844 L 439.003906 227.46875 C 439.003906 222.898438 435.285156 219.179688 430.707031 219.179688 L 403.816406 219.179688 C 402.367188 219.179688 401.1875 218.003906 401.1875 216.550781 L 401.1875 209.671875 C 401.1875 208.621094 401.820312 207.671875 402.78125 207.261719 C 410.109375 204.136719 414.839844 196.972656 414.839844 189.011719 C 414.839844 178.070312 405.9375 169.179688 394.996094 169.179688 C 384.054688 169.179688 375.148438 178.074219 375.148438 189.011719 C 375.148438 196.964844 379.878906 204.128906 387.207031 207.261719 C 388.175781 207.671875 388.800781 208.621094 388.800781 209.671875 L 388.800781 216.550781 C 388.800781 218.003906 387.625 219.179688 386.171875 219.179688 L 359.285156 219.179688 C 354.710938 219.179688 350.988281 222.894531 350.988281 227.46875 C 350.988281 228.917969 349.808594 230.097656 348.359375 230.097656 C 346.90625 230.097656 345.730469 228.917969 345.730469 227.46875 C 345.730469 220 351.808594 213.925781 359.285156 213.925781 L 383.542969 213.925781 L 383.542969 211.34375 C 375.191406 207.070312 369.890625 198.488281 369.890625 189.011719 C 369.890625 175.175781 381.15625 163.925781 394.996094 163.925781 C 408.832031 163.925781 420.097656 175.179688 420.097656 189.011719 C 420.097656 198.480469 414.792969 207.070312 406.445312 211.34375 L 406.445312 213.925781 L 430.707031 213.925781 C 438.183594 213.925781 444.261719 220 444.261719 227.46875 L 444.261719 251.710938 L 445.75 251.710938 C 450.027344 243.367188 458.613281 238.070312 468.101562 238.070312 C 481.945312 238.070312 493.203125 249.324219 493.203125 263.152344 C 493.203125 276.984375 481.9375 288.238281 468.101562 288.238281 C 458.621094 288.238281 450.027344 282.9375 445.75 274.597656 L 444.261719 274.597656 L 444.261719 298.839844 C 444.261719 306.308594 438.183594 312.382812 430.707031 312.382812 C 427.855469 312.382812 423.203125 312.652344 417.828125 312.957031 C 407.5625 313.542969 397.285156 314.03125 387.835938 314.035156 Z M 387.835938 314.035156 " fill-opacity="1" fill-rule="nonzero"/></g><g clip-path="url(#e0fbc4e307)"><path fill="#000000" d="M 337.4375 312.378906 L 266.015625 312.378906 C 258.539062 312.378906 252.460938 306.304688 252.460938 298.832031 L 252.460938 227.464844 C 252.460938 219.992188 258.539062 213.917969 266.015625 213.917969 L 290.273438 213.917969 L 290.273438 211.335938 C 281.921875 207.0625 276.621094 198.480469 276.621094 189.003906 C 276.621094 175.171875 287.886719 163.917969 301.726562 163.917969 C 315.566406 163.917969 326.828125 175.175781 326.828125 189.003906 C 326.828125 198.476562 321.523438 207.0625 313.175781 211.335938 L 313.175781 213.917969 L 337.4375 213.917969 C 344.914062 213.917969 350.992188 219.992188 350.992188 227.464844 L 350.992188 251.707031 L 352.488281 251.707031 C 356.765625 243.359375 365.351562 238.0625 374.835938 238.0625 C 388.679688 238.0625 399.941406 249.320312 399.941406 263.148438 C 399.941406 276.976562 388.675781 288.234375 374.835938 288.234375 C 365.355469 288.234375 356.765625 282.929688 352.488281 274.589844 L 350.992188 274.589844 L 350.992188 298.832031 C 350.988281 306.304688 344.90625 312.378906 337.4375 312.378906 Z M 266.015625 219.171875 C 261.441406 219.171875 257.71875 222.890625 257.71875 227.464844 L 257.71875 298.832031 C 257.71875 303.402344 261.4375 307.125 266.015625 307.125 L 337.4375 307.125 C 342.011719 307.125 345.734375 303.410156 345.734375 298.832031 L 345.734375 271.964844 C 345.734375 270.515625 346.910156 269.339844 348.363281 269.339844 L 354.152344 269.339844 C 355.203125 269.339844 356.15625 269.96875 356.566406 270.929688 C 359.695312 278.253906 366.863281 282.980469 374.832031 282.980469 C 385.777344 282.980469 394.675781 274.082031 394.675781 263.148438 C 394.675781 252.214844 385.773438 243.316406 374.832031 243.316406 C 366.867188 243.316406 359.699219 248.046875 356.566406 255.367188 C 356.15625 256.335938 355.203125 256.960938 354.152344 256.960938 L 348.363281 256.960938 C 346.910156 256.960938 345.734375 255.78125 345.734375 254.332031 L 345.734375 227.464844 C 345.734375 222.894531 342.015625 219.171875 337.4375 219.171875 L 310.546875 219.171875 C 309.097656 219.171875 307.917969 217.996094 307.917969 216.546875 L 307.917969 209.667969 C 307.917969 208.617188 308.550781 207.664062 309.511719 207.253906 C 316.839844 204.128906 321.574219 196.964844 321.574219 189.003906 C 321.574219 178.066406 312.667969 169.171875 301.726562 169.171875 C 290.785156 169.171875 281.878906 178.070312 281.878906 189.003906 C 281.878906 196.960938 286.609375 204.125 293.9375 207.253906 C 294.90625 207.664062 295.53125 208.617188 295.53125 209.667969 L 295.53125 216.546875 C 295.53125 217.996094 294.355469 219.171875 292.902344 219.171875 Z M 266.015625 219.171875 " fill-opacity="1" fill-rule="nonzero"/></g></svg>