<svg xmlns="http://www.w3.org/2000/svg" xmlns:xlink="http://www.w3.org/1999/xlink" width="981" zoomAndPan="magnify" viewBox="0 0 735.75 386.250002" height="515" preserveAspectRatio="xMidYMid meet" version="1.0"><defs><clipPath id="f90b0f5c55"><path d="M 276 67.777344 L 347 67.777344 L 347 145 L 276 145 Z M 276 67.777344 " clip-rule="nonzero"/></clipPath><clipPath id="92ccc4c1f4"><path d="M 225.621094 115 L 402 115 L 402 338 L 225.621094 338 Z M 225.621094 115 " clip-rule="nonzero"/></clipPath><clipPath id="d725151be5"><path d="M 294 67.777344 L 365 67.777344 L 365 145 L 294 145 Z M 294 67.777344 " clip-rule="nonzero"/></clipPath><clipPath id="03dd288c9e"><path d="M 345 215 L 487.609375 215 L 487.609375 338 L 345 338 Z M 345 215 " clip-rule="nonzero"/></clipPath></defs><g clip-path="url(#f90b0f5c55)"><path fill="#100f0f" d="M 342.742188 144.691406 C 340.53125 144.691406 338.738281 142.894531 338.738281 140.679688 L 338.738281 102.894531 C 338.738281 88.027344 326.660156 75.933594 311.8125 75.933594 C 296.964844 75.933594 284.878906 88.027344 284.878906 102.894531 L 284.878906 140.679688 C 284.878906 142.894531 283.09375 144.691406 280.882812 144.691406 C 278.671875 144.691406 276.878906 142.894531 276.878906 140.679688 L 276.878906 102.894531 C 276.878906 83.613281 292.542969 67.917969 311.8125 67.917969 C 331.070312 67.917969 346.75 83.613281 346.75 102.894531 L 346.75 140.679688 C 346.75 142.894531 344.953125 144.691406 342.742188 144.691406 " fill-opacity="1" fill-rule="nonzero"/></g><g clip-path="url(#92ccc4c1f4)"><path fill="#f79326" d="M 401.75 328.128906 C 401.75 333.488281 397.375 337.855469 392.027344 337.855469 L 235.332031 337.855469 C 229.984375 337.855469 225.609375 333.488281 225.609375 328.128906 L 243.832031 125.203125 C 243.832031 119.859375 248.207031 115.480469 253.554688 115.480469 L 373.804688 115.480469 C 379.152344 115.480469 383.527344 119.859375 383.527344 125.203125 L 401.75 328.128906 " fill-opacity="1" fill-rule="nonzero"/></g><path fill="#f9af23" d="M 417.65625 328.128906 C 417.65625 333.488281 413.28125 337.855469 407.945312 337.855469 L 251.238281 337.855469 C 245.886719 337.855469 241.511719 333.488281 241.511719 328.128906 L 259.746094 125.203125 C 259.746094 119.859375 264.109375 115.480469 269.460938 115.480469 L 389.722656 115.480469 C 395.058594 115.480469 399.433594 119.859375 399.433594 125.203125 L 417.65625 328.128906 " fill-opacity="1" fill-rule="nonzero"/><path fill="#f79326" d="M 307.378906 140.679688 C 307.378906 145.820312 303.21875 149.988281 298.09375 149.988281 C 292.960938 149.988281 288.800781 145.820312 288.800781 140.679688 C 288.800781 135.535156 292.960938 131.382812 298.09375 131.382812 C 303.21875 131.382812 307.378906 135.535156 307.378906 140.679688 " fill-opacity="1" fill-rule="nonzero"/><path fill="#f79326" d="M 370.367188 140.679688 C 370.367188 145.820312 366.207031 149.988281 361.085938 149.988281 C 355.949219 149.988281 351.789062 145.820312 351.789062 140.679688 C 351.789062 135.535156 355.949219 131.382812 361.085938 131.382812 C 366.207031 131.382812 370.367188 135.535156 370.367188 140.679688 " fill-opacity="1" fill-rule="nonzero"/><g clip-path="url(#d725151be5)"><path fill="#141515" d="M 360.515625 144.691406 C 358.304688 144.691406 356.519531 142.894531 356.519531 140.679688 L 356.519531 102.894531 C 356.519531 88.027344 344.441406 75.933594 329.585938 75.933594 C 314.738281 75.933594 302.660156 88.027344 302.660156 102.894531 L 302.660156 140.679688 C 302.660156 142.894531 300.863281 144.691406 298.652344 144.691406 C 296.441406 144.691406 294.648438 142.894531 294.648438 140.679688 L 294.648438 102.894531 C 294.648438 83.613281 310.328125 67.917969 329.585938 67.917969 C 348.851562 67.917969 364.519531 83.613281 364.519531 102.894531 L 364.519531 140.679688 C 364.519531 142.894531 362.726562 144.691406 360.515625 144.691406 " fill-opacity="1" fill-rule="nonzero"/></g><path fill="#100f0f" d="M 428.617188 244.410156 C 426.40625 244.410156 424.609375 242.625 424.609375 240.410156 L 424.609375 202.628906 C 424.609375 187.757812 412.53125 175.664062 397.683594 175.664062 C 382.839844 175.664062 370.75 187.757812 370.75 202.628906 L 370.75 240.410156 C 370.75 242.625 368.953125 244.410156 366.742188 244.410156 C 364.542969 244.410156 362.75 242.625 362.75 240.410156 L 362.75 202.628906 C 362.75 183.34375 378.417969 167.640625 397.683594 167.640625 C 416.941406 167.640625 432.621094 183.34375 432.621094 202.628906 L 432.621094 240.410156 C 432.621094 242.625 430.828125 244.410156 428.617188 244.410156 " fill-opacity="1" fill-rule="nonzero"/><path fill="#d22b34" d="M 471.71875 328.128906 C 471.71875 333.488281 467.34375 337.855469 461.996094 337.855469 L 339.308594 337.855469 C 333.957031 337.855469 329.585938 333.488281 329.585938 328.128906 L 329.703125 224.933594 C 329.703125 219.578125 334.078125 215.210938 339.425781 215.210938 L 459.675781 215.210938 C 465.027344 215.210938 469.398438 219.578125 469.398438 224.933594 L 471.71875 328.128906 " fill-opacity="1" fill-rule="nonzero"/><g clip-path="url(#03dd288c9e)"><path fill="#ef323d" d="M 487.625 328.128906 C 487.625 333.488281 483.25 337.855469 477.898438 337.855469 L 355.214844 337.855469 C 349.863281 337.855469 345.488281 333.488281 345.488281 328.128906 L 345.609375 224.933594 C 345.609375 219.578125 349.984375 215.210938 355.332031 215.210938 L 475.582031 215.210938 C 480.929688 215.210938 485.304688 219.578125 485.304688 224.933594 L 487.625 328.128906 " fill-opacity="1" fill-rule="nonzero"/></g><path fill="#d22b34" d="M 393.261719 240.410156 C 393.261719 245.554688 389.089844 249.707031 383.96875 249.707031 C 378.832031 249.707031 374.671875 245.554688 374.671875 240.410156 C 374.671875 235.269531 378.832031 231.101562 383.96875 231.101562 C 389.089844 231.101562 393.261719 235.269531 393.261719 240.410156 " fill-opacity="1" fill-rule="nonzero"/><path fill="#d22b34" d="M 456.242188 240.410156 C 456.242188 245.554688 452.082031 249.707031 446.945312 249.707031 C 441.820312 249.707031 437.660156 245.554688 437.660156 240.410156 C 437.660156 235.269531 441.820312 231.101562 446.945312 231.101562 C 452.082031 231.101562 456.242188 235.269531 456.242188 240.410156 " fill-opacity="1" fill-rule="nonzero"/><path fill="#141515" d="M 446.386719 244.410156 C 444.175781 244.410156 442.382812 242.625 442.382812 240.410156 L 442.382812 202.628906 C 442.382812 187.757812 430.304688 175.664062 415.457031 175.664062 C 400.609375 175.664062 388.53125 187.757812 388.53125 202.628906 L 388.53125 240.410156 C 388.53125 242.625 386.738281 244.410156 384.527344 244.410156 C 382.316406 244.410156 380.519531 242.625 380.519531 240.410156 L 380.519531 202.628906 C 380.519531 183.34375 396.1875 167.640625 415.457031 167.640625 C 434.714844 167.640625 450.394531 183.34375 450.394531 202.628906 L 450.394531 240.410156 C 450.394531 242.625 448.597656 244.410156 446.386719 244.410156 " fill-opacity="1" fill-rule="nonzero"/></svg>